<?xml version="1.0" encoding="UTF-8"?>
<svg width="59px" height="37px" viewBox="0 0 59 37" version="1.1" xmlns="http://www.w3.org/2000/svg" xmlns:xlink="http://www.w3.org/1999/xlink">
    <title>BAA43B65-770A-439E-B7F2-8A56921B4C63</title>
    <g id="Welcome" stroke="none" stroke-width="1" fill="none" fill-rule="evenodd">
        <g id="Landing" transform="translate(-1185.000000, -20.000000)">
            <g id="Logo" transform="translate(1185.000000, 20.000000)">
                <circle id="Oval" fill="#000000" cx="14.025974" cy="2.33766234" r="2.33766234"></circle>
                <path d="M44.4155844,15.0779221 L44.4155844,26.1818182 L44.4155844,26.1818182 C44.4155844,28.636183 46.2349244,30.5064935 48.6233766,30.5064935 C50.9879443,30.5064935 52.8311688,28.6359118 52.8305894,26.2533346 L52.8310487,15.0779221 C52.8312352,13.4641499 54.1394746,12.1559643 55.7532468,12.1558442 L58.6753247,12.1558442 L58.6753247,12.1558442 L58.6753247,25.9480519 C58.6753247,31.4995896 54.1749142,36 48.6233766,36 C43.071839,36 38.5714286,31.4995896 38.5714286,25.9480519 L38.5714286,12.1558442 L41.4935065,12.1558442 C43.1073256,12.1558442 44.4155844,13.464103 44.4155844,15.0779221 Z" id="Combined-Shape" fill="#4E91E6" fill-rule="nonzero"></path>
                <path d="M30.974026,3.27272727 L33.8961039,3.27272727 L33.8961039,3.27272727 L33.8961039,33.0779221 C33.8961039,34.6917412 32.587845,36 30.974026,36 L28.0519481,36 L28.0519481,36 L28.0519481,6.19480519 C28.0519481,4.58098612 29.3602069,3.27272727 30.974026,3.27272727 Z" id="Rectangle" fill="#4E91E6"></path>
                <path d="M5.84415584,3.27272727 L5.84402414,14.3686701 C7.69386418,12.6928221 10.0533293,11.6883117 12.6233766,11.6883117 C18.5622308,11.6883117 23.3766234,17.052173 23.3766234,23.6688312 C23.3766234,23.7193051 23.3763432,23.7697062 23.3757845,23.8200326 C23.3763608,23.8669089 23.3766234,23.9139423 23.3766234,23.961039 C23.3757845,30.7985349 18.143588,36 11.6883117,36 C5.34695427,36 0.18507964,30.7985349 0.00486714406,24.3118494 L0,24.3116883 L0,6.19480519 C0,4.57100641 1.32339636,3.27272727 2.92207792,3.27272727 L5.84415584,3.27272727 Z M11.5714286,17.0649351 C8.2146849,17.0649351 5.49350649,20.0739304 5.49350649,23.7857143 C5.49350649,27.4974982 8.2146849,30.5064935 11.5714286,30.5064935 C14.9281722,30.5064935 17.6493506,27.4974982 17.6493506,23.7857143 C17.6493506,20.0739304 14.9281722,17.0649351 11.5714286,17.0649351 Z" id="Combined-Shape" fill="#4E91E6" fill-rule="nonzero"></path>
            </g>
        </g>
    </g>
</svg>